PathFileType        4      (X/Y/Z)      Walking.trc         
DataRate	CameraRate	NumFrames	NumMarkers	Units	OrigDataRate	OrigDataStartFrame	OrigNumFrames
100.0	100.0	10	22	mm	100.0	71	84
Frame#	Time	T2			T10			MANU			LASI			RASI			SACR			LTHI			LKNE			LTIB			LANK			LHEE			LTOE			LD1MH			LD5MH			RTHI			RKNE			RTIB			RANK			RHEE			RTOE			RD1MH			RD5MH			
		X1	Y1	Z1	X2	Y2	Z2	X3	Y3	Z3	X4	Y4	Z4	X5	Y5	Z5	X6	Y6	Z6	X7	Y7	Z7	X8	Y8	Z8	X9	Y9	Z9	X10	Y10	Z10	X11	Y11	Z11	X12	Y12	Z12	X13	Y13	Z13	X14	Y14	Z14	X15	Y15	Z15	X16	Y16	Z16	X17	Y17	Z17	X18	Y18	Z18	X19	Y19	Z19	X20	Y20	Z20	X21	Y21	Z21	X22	Y22	Z22	
71	1.94	1028.44297109	1106.828577	-114.46689878	1026.62317965	925.79692885	-109.92181689	1139.89232103	1082.28414722	-100.27768482	1154.40648335	723.10781114	-184.38477423	1152.53188254	726.5675625	-14.01013793	1019.08421448	776.20026882	-103.56381492	1046.54518281	434.2555609	-231.27571672	1021.25596324	381.49060091	-180.08318591	937.63118331	161.82171633	-206.95282678	907.00549012	81.47881842	-151.76917271	851.87065076	47.89634219	-111.4864359	1026.24007489	29.34352171	-122.78367567	1019.64045039	24.58395059	-73.88156229	988.30474838	17.06121935	-166.41182906	1224.77523628	482.34653997	56.35618082	1247.75684602	405.70327248	4.69689717	1159.91726386	191.98910355	32.43367732	1145.36620313	107.94421776	-14.92772022	1097.92634902	77.41136937	-64.18280089	1261.25078706	46.11057704	-26.44239955	1255.01307082	49.06447541	-80.40161492	1224.4393062	35.02139056	6.85143492	
72	1.95	1043.68571584	1105.76634114	-114.78908521	1040.97775525	924.86685998	-109.29934707	1155.01267831	1080.82738086	-100.59070711	1166.91000507	721.66497334	-184.74485912	1167.72656924	725.53517664	-14.29316638	1032.6281212	775.09226242	-101.62843689	1053.25810785	434.80740674	-230.96370778	1026.73659584	382.21608069	-179.9962723	939.59904269	163.77748302	-207.05662211	908.08366221	83.60644182	-151.87078561	852.47210789	50.93115561	-111.55996156	1026.332752	29.27563203	-122.80703171	1019.65703864	24.92813471	-73.95613042	988.35697351	17.22344056	-166.45216667	1240.43098092	480.92736025	54.3459592	1263.87122159	404.7132621	2.66065315	1195.01762906	183.60972977	31.41704646	1188.38887688	98.8611941	-15.78893104	1143.75568432	64.28111026	-64.94504066	1309.41224434	47.93383285	-28.6063945	1302.28181929	50.58736773	-82.5498652	1274.3018906	33.41979236	4.98954166	
73	1.96	1058.99446652	1104.4277042	-114.98450523	1055.47132721	923.65589751	-108.58514666	1170.24059331	1079.12052048	-100.89293459	1179.63937948	720.00781765	-185.11791574	1183.12016269	724.20061749	-14.60197418	1046.38227358	773.691922	-99.72472296	1060.48674128	435.16845543	-230.64641154	1032.88460286	382.75686676	-179.85749916	941.88542005	165.7637317	-207.15125211	909.29869402	85.83915332	-152.01390439	853.15163381	54.11810806	-111.70187564	1026.45727629	29.19489064	-122.81293271	1019.69848219	25.25717563	-74.02721194	988.44983118	17.41088794	-166.48268767	1255.02114992	478.37074217	52.44680445	1279.03219144	402.77487756	0.68845435	1229.78730122	175.89716131	30.26924367	1231.23511487	90.97530977	-16.86298545	1189.66640855	52.67339615	-65.93888329	1356.60892583	51.28804689	-31.16007314	1348.54923787	53.61708188	-85.07113257	1323.55387217	33.45665265	2.70967492	
74	1.97	1074.36710516	1102.82530279	-115.05195828	1070.12118866	922.17580469	-107.79316656	1185.57526768	1077.18604357	-101.17047874	1192.63991301	718.14632192	-185.50656037	1198.71826741	722.59314635	-14.93860035	1060.38263741	772.0063037	-97.89653772	1068.29078979	435.30039294	-230.32847471	1039.77606666	383.07275611	-179.66171272	944.52346737	167.79190687	-207.2250908	910.67688443	88.19375662	-152.18684182	853.94170006	57.49086937	-111.86532842	1026.61968891	29.10012885	-122.79673779	1019.78988367	25.56385044	-74.08635444	988.57697924	17.62293801	-166.47972609	1268.84395065	474.81243789	50.7167125	1293.48991581	400.0139381	-1.20818424	1263.92054724	168.97290701	28.98098686	1273.30933578	84.36947144	-18.1736662	1234.90782077	42.75801214	-67.17785306	1402.22709032	55.93547115	-34.127673	1393.22203411	57.92766796	-87.98518016	1371.50207555	34.95750065	-0.02667694	
75	1.98	1089.80119396	1100.97888609	-114.99587104	1084.94101814	920.44528435	-106.94057549	1201.01380604	1075.05217431	-101.41018541	1205.95250863	716.09498092	-185.9090828	1214.52059975	720.75080789	-15.30094096	1074.65729636	770.04899471	-96.18516347	1076.7380712	435.16825145	-230.0181549	1047.48701398	383.12470648	-179.41323355	947.55674541	169.87771554	-207.2778168	912.25693002	90.69216281	-152.38865568	854.88880544	61.09797661	-112.01832991	1026.81861643	28.98663196	-122.75486075	1019.94506513	25.84301767	-74.1268162	988.72898761	17.85408644	-166.42347615	1282.24834851	470.45551839	49.18768461	1307.53997116	396.6082057	-3.02570262	1297.07667177	162.91358199	27.54368022	1313.95406301	79.04040457	-19.73590758	1278.63075513	34.60202677	-68.65700828	1445.60979152	61.4562219	-37.52027897	1435.65962051	63.11630505	-91.29841003	1417.37585056	37.57757921	-3.23493175	
76	1.99	1105.29390871	1098.91558338	-114.82633407	1099.94003455	918.49025765	-106.04737009	1216.55104559	1072.75269466	-101.60029838	1219.61125865	713.87317078	-186.31938107	1230.52073364	718.71967893	-15.6829055	1089.22422601	767.84124452	-94.62748599	1085.90476715	434.74121353	-229.72887243	1056.09351381	382.87506157	-179.12810156	951.04322873	172.03906659	-207.32265127	914.09410889	93.36122273	-152.63145578	856.05787621	65.00409753	-112.15182111	1027.04347416	28.84553672	-122.68417782	1020.16203631	26.09329699	-74.1436604	988.89313157	18.09534686	-166.30039856	1295.60165742	465.55724204	47.8610729	1321.50097121	392.77571983	-4.76927161	1328.9000115	157.74800043	25.9514674	1352.49581849	74.90117069	-21.55196923	1319.9467209	28.16912464	-70.34689409	1486.10403506	67.26621514	-41.33780149	1475.21462262	68.61759902	-95.00523889	1460.37915719	40.8199927	-6.90228263	
77	2.0	1120.84181522	1096.66992491	-114.55886977	1115.12224861	916.34390767	-105.13587572	1232.1794031	1070.32656559	-101.73111778	1233.64106013	711.50537738	-186.7272562	1246.70602081	716.55278554	-16.07487466	1104.08968416	765.41285452	-93.25433554	1095.87425833	433.9934676	-229.47985064	1065.67109218	382.28801799	-178.8349495	955.05822802	174.29387796	-207.38660071	916.26386731	96.23259918	-152.94063322	857.53664725	69.29009035	-112.28415153	1027.27389104	28.66534347	-122.58166956	1020.42113519	26.32024391	-74.1336817	989.0538502	18.33828528	-166.10478354	1309.25504003	460.40975044	46.70748508	1335.68790647	388.75810428	-6.45313856	1359.0452673	153.45926297	24.20339328	1388.297652	71.79518213	-23.60877181	1358.00076088	23.33199432	-72.19146367	1523.11567893	72.66960768	-45.56862005	1511.28495683	73.74982859	-99.08760993	1499.75545297	44.08573277	-10.98287311	
78	2.01	1136.44051805	1094.28357892	-114.21392564	1130.48586447	914.04644509	-104.23014438	1247.88875113	1067.8173476	-101.79561774	1248.05544753	709.02126637	-187.11907741	1263.05770864	714.30870128	-16.46442541	1119.24740854	762.80266508	-92.08906728	1106.7343167	432.90519418	-229.29569457	1076.29335941	381.33051887	-178.57432702	959.69572325	176.65795062	-207.50854217	918.86421535	99.34253528	-153.35269332	859.43932396	74.05135829	-112.46085726	1027.48124908	28.435897	-122.44462824	1020.6871246	26.54077944	-74.09541147	989.19484488	18.58187508	-165.83949568	1323.51155953	455.31648663	45.67169605	1350.38421175	384.80073012	-8.10010503	1387.20503949	149.99242183	22.30538545	1420.81155979	69.52040244	-25.8768796	1392.04917542	19.89595809	-74.11105806	1556.16345322	76.94362738	-50.1855301	1543.37064277	77.79311778	-103.51154308	1534.85689749	46.75235406	-15.39390693	
79	2.02	1152.08423874	1091.80477379	-113.81609728	1146.02288717	911.64456258	-103.35525838	1263.66634201	1065.27242008	-101.78998178	1262.85484884	706.4555727	-187.47879294	1279.55127167	712.04985453	-16.83726478	1134.6787428	760.05850812	-91.14647392	1118.5726141	431.46377526	-229.20498847	1088.02990636	379.97374879	-178.39649902	965.06780161	179.1431165	-207.73530306	922.01642529	102.73127914	-153.91068863	861.90869771	79.39399877	-112.74943361	1027.63341437	28.15461842	-122.27173595	1020.9163433	26.78809314	-74.02949251	989.30395759	18.84168187	-165.51611082	1338.60069312	450.56685119	44.68199215	1365.81580753	381.13216455	-9.7397581	1413.13544329	147.26677775	20.27181407	1449.62357874	67.85977071	-28.3113406	1421.53126911	17.62919172	-76.01038913	1584.92309959	79.44480469	-55.13844478	1571.1259197	80.0910457	-108.22112115	1565.20799521	48.26953273	-20.0143119	
80	2.03	1167.76539135	1089.28738511	-113.39310099	1161.71899	909.19055599	-102.53655356	1279.49680299	1062.74200974	-101.71401204	1278.02546702	703.84778538	-187.7892242	1296.15696364	709.84059034	-17.17829571	1150.35371312	757.23654574	-90.43212616	1131.47073515	429.66531339	-229.23818284	1100.9436341	378.19537068	-178.35793406	971.30209368	181.75587396	-208.11618908	925.86368788	106.44189287	-154.65766887	865.11587726	85.42830561	-113.22960769	1027.70366865	27.83412186	-122.06527954	1021.06959313	27.11574175	-73.93973392	989.3817932	19.16003581	-165.15474933	1354.66163683	446.41188603	43.66237172	1382.12998453	377.94538574	-11.40529053	1436.67551728	145.19030138	18.12641445	1474.48528172	66.61194769	-30.85428101	1446.12426539	16.29313367	-77.79032735	1609.25450751	79.71769835	-60.34624969	1594.39677814	80.15871765	-113.1318896	1590.55434462	48.25272453	-24.68824466	
